<?xml version="1.0" standalone="no"?>
<!DOCTYPE svg PUBLIC "-//W3C//DTD SVG 20010904//EN"
 "http://www.w3.org/TR/2001/REC-SVG-20010904/DTD/svg10.dtd">
<svg version="1.0" xmlns="http://www.w3.org/2000/svg"
 width="2000.000000pt" height="550.000000pt" viewBox="0 0 2000.000000 550.000000"
 preserveAspectRatio="xMidYMid meet">

<g transform="translate(0.000000,550.000000) scale(0.100000,-0.100000)"
fill="#000000" stroke="none">
<path d="M2490 5479 c-779 -86 -1457 -472 -1925 -1095 -715 -953 -718 -2299
-6 -3259 445 -600 1074 -975 1831 -1092 164 -25 588 -25 750 0 759 118 1384
489 1826 1083 286 384 464 830 525 1319 16 129 16 501 0 630 -91 731 -449
1376 -1014 1827 -378 301 -816 493 -1302 569 -150 24 -542 34 -685 18z m590
-109 c330 -42 687 -157 963 -312 462 -258 838 -649 1076 -1117 119 -234 197
-472 248 -751 25 -136 27 -164 27 -440 0 -276 -2 -304 -27 -440 -98 -540 -330
-1000 -696 -1382 -669 -699 -1668 -977 -2596 -723 -178 49 -299 96 -480 185
-611 301 -1075 822 -1312 1470 -46 127 -107 367 -129 515 -26 170 -26 580 0
750 88 577 345 1086 756 1495 216 216 424 363 705 500 299 146 600 230 939
260 111 10 410 4 526 -10z"/>
<path d="M1556 4300 c-15 -5 -37 -17 -48 -27 -50 -45 -48 31 -48 -1525 0
-1423 0 -1454 20 -1485 10 -18 31 -40 47 -50 26 -17 84 -18 1043 -21 558 -2
1035 0 1059 3 32 5 54 16 78 40 l33 33 0 493 0 493 -50 -49 -50 -49 -2 -426
-3 -425 -1030 0 -1030 0 0 1445 0 1445 778 3 777 2 0 -202 c0 -184 2 -206 20
-235 39 -64 52 -68 282 -71 l208 -3 0 -317 0 -317 50 50 50 50 0 310 1 309
-268 268 -269 268 -809 -1 c-446 0 -823 -5 -839 -9z m1857 -498 c-81 -1 -153
0 -160 2 -10 4 -13 43 -13 163 l0 158 160 -160 160 -160 -147 -3z"/>
<path d="M1804 3995 c-20 -30 -10 -63 23 -76 38 -14 433 -11 463 4 30 15 38
58 15 81 -14 14 -48 16 -250 16 l-235 0 -16 -25z"/>
<path d="M1806 3778 c-21 -30 -20 -44 4 -68 19 -19 33 -20 243 -20 242 0 267
5 267 55 0 53 -12 55 -265 55 -230 0 -234 0 -249 -22z"/>
<path d="M1804 3265 c-15 -23 -15 -27 0 -50 l16 -25 448 0 c335 0 451 3 460
12 7 7 12 24 12 38 0 14 -5 31 -12 38 -9 9 -125 12 -460 12 l-448 0 -16 -25z"/>
<path d="M1810 3030 c-11 -11 -20 -27 -20 -35 0 -8 9 -24 20 -35 20 -20 33
-20 693 -20 732 0 717 -1 717 55 0 56 15 55 -717 55 -660 0 -673 0 -693 -20z"/>
<path d="M3741 2965 l-66 -64 130 -131 130 -130 67 67 c95 94 94 101 -30 225
-125 125 -135 127 -231 33z"/>
<path d="M3622 2847 l-22 -23 130 -129 130 -130 22 23 23 22 -131 130 -130
131 -22 -24z"/>
<path d="M1804 2775 c-15 -23 -15 -27 0 -50 l16 -25 685 0 c608 0 685 2 699
16 19 18 20 38 6 65 -10 18 -29 19 -700 19 l-690 0 -16 -25z"/>
<path d="M3263 2487 l-302 -302 -51 -174 c-29 -95 -48 -177 -43 -181 4 -5 85
14 179 42 l172 51 303 303 c300 300 303 303 284 324 -10 11 -23 20 -29 20 -18
0 -606 -594 -606 -612 0 -11 -21 -23 -72 -38 l-71 -22 -45 45 -45 45 18 67
c13 48 24 69 39 75 12 5 156 144 321 309 l300 301 -25 25 -25 25 -302 -303z"/>
<path d="M3351 2416 c-258 -258 -294 -298 -294 -325 0 -43 28 -71 72 -71 33 0
54 19 328 293 l293 292 -52 52 -53 53 -294 -294z"/>
<path d="M1804 2535 c-20 -30 -10 -63 23 -76 14 -5 206 -9 446 -9 366 0 426 2
445 16 28 20 30 69 3 84 -13 6 -176 10 -460 10 l-441 0 -16 -25z"/>
<path d="M1804 1865 c-20 -30 -10 -63 23 -76 38 -14 433 -11 463 4 30 15 38
58 15 81 -14 14 -48 16 -250 16 l-235 0 -16 -25z"/>
<path d="M7192 3869 c-71 -14 -149 -55 -206 -109 -176 -166 -184 -522 -15
-713 27 -31 66 -59 117 -84 76 -38 76 -38 201 -38 156 0 212 19 300 100 98 91
151 221 151 370 0 249 -127 426 -337 470 -75 16 -145 17 -211 4z m205 -133
c108 -55 161 -190 150 -384 -6 -115 -27 -177 -79 -237 -50 -57 -91 -75 -172
-75 -145 0 -237 104 -254 287 -20 218 50 386 176 422 49 13 141 7 179 -13z"/>
<path d="M13289 3862 c-243 -64 -372 -330 -299 -618 50 -197 186 -310 388
-322 102 -6 187 10 267 50 33 17 62 32 65 35 2 2 -7 24 -20 48 l-24 43 -40
-20 c-90 -46 -248 -53 -324 -14 -38 20 -91 80 -113 130 -43 98 -49 276 -13
382 41 121 123 184 241 184 70 0 160 -29 188 -60 18 -19 19 -19 62 37 42 54
43 56 23 70 -35 24 -91 44 -167 59 -96 18 -152 17 -234 -4z"/>
<path d="M11265 3850 c-160 -53 -267 -206 -282 -405 -12 -171 39 -319 147
-418 72 -67 144 -97 251 -104 162 -12 306 49 389 164 63 88 82 150 87 283 5
124 -9 205 -49 284 -34 66 -115 144 -187 179 -61 29 -75 32 -181 34 -93 2
-126 -1 -175 -17z m287 -125 c55 -40 84 -83 109 -168 29 -95 24 -287 -9 -361
-46 -102 -104 -150 -196 -162 -185 -26 -310 146 -293 404 10 156 56 251 147
299 39 21 56 24 122 21 66 -3 82 -7 120 -33z"/>
<path d="M6104 3843 c4 -10 63 -122 132 -249 l124 -232 0 -216 0 -216 85 0 85
0 0 211 0 211 135 247 c74 136 135 251 135 254 0 4 -33 7 -73 7 l-73 0 -93
-170 c-51 -94 -96 -168 -99 -165 -3 3 -44 78 -92 167 l-87 163 -93 3 c-85 3
-92 1 -86 -15z"/>
<path d="M7847 3733 c2 -71 4 -222 6 -338 5 -245 17 -294 94 -376 63 -67 125
-92 247 -97 164 -7 267 33 333 132 55 81 56 94 60 464 l4 342 -70 0 -71 0 0
-310 c0 -345 -6 -393 -53 -447 -41 -46 -82 -63 -156 -63 -71 0 -106 12 -144
48 -62 59 -62 55 -65 430 l-3 342 -92 0 -93 0 3 -127z"/>
<path d="M8746 3838 c4 -13 10 -222 11 -465 l4 -443 84 0 85 0 0 210 0 210 34
0 c34 0 36 -3 164 -207 l129 -208 98 -3 c76 -2 96 0 92 10 -2 7 -64 104 -136
216 -72 111 -131 206 -131 211 0 5 10 11 23 15 46 11 115 74 142 131 49 99 23
227 -58 286 -70 51 -119 59 -345 59 l-204 0 8 -22z m382 -123 c68 -41 80 -144
23 -199 -35 -33 -79 -46 -158 -46 l-63 0 0 136 0 137 83 -5 c57 -3 92 -10 115
-23z"/>
<path d="M9536 3843 c5 -10 10 -219 12 -465 l3 -448 79 0 80 0 2 188 3 187
100 6 c119 7 165 19 227 58 90 57 132 165 109 278 -15 74 -49 125 -107 159
-73 43 -140 54 -338 54 -166 0 -178 -1 -170 -17z m375 -119 c37 -19 68 -83 69
-138 0 -54 -35 -123 -73 -142 -16 -9 -65 -19 -109 -21 l-78 -6 0 162 0 161 80
0 c54 0 91 -5 111 -16z"/>
<path d="M10274 3838 c3 -13 6 -222 6 -465 l0 -443 85 0 85 0 0 210 0 210 39
0 40 0 129 -207 129 -208 93 -3 c72 -2 91 0 87 10 -2 7 -66 107 -140 222
l-136 209 48 22 c61 29 115 85 137 141 24 63 15 162 -20 212 -63 91 -140 112
-399 112 l-189 0 6 -22z m371 -114 c46 -22 69 -60 69 -114 -1 -99 -56 -140
-189 -140 l-75 0 0 135 0 135 81 0 c53 0 92 -5 114 -16z"/>
<path d="M11978 3370 c3 -470 2 -492 -17 -535 -15 -33 -29 -49 -58 -62 -21
-10 -40 -18 -41 -20 -2 -1 -1 -20 3 -42 6 -38 9 -41 40 -41 80 0 160 48 198
119 43 78 47 136 47 618 l0 453 -87 0 -88 0 3 -490z"/>
<path d="M12316 3843 c5 -10 10 -219 12 -465 l3 -448 279 0 280 0 0 60 0 60
-200 0 -200 0 0 150 0 150 150 0 150 0 0 60 0 60 -150 0 -150 0 0 135 0 135
200 0 200 0 0 60 0 60 -291 0 c-274 0 -291 -1 -283 -17z"/>
<path d="M13760 3800 l0 -60 130 0 130 0 0 -405 0 -405 85 0 85 0 0 405 0 405
135 0 135 0 0 60 0 60 -350 0 -350 0 0 -60z"/>
<path d="M14536 3843 c5 -10 10 -219 12 -465 l3 -448 84 0 85 0 0 189 0 188
108 6 c124 6 183 23 241 74 67 56 86 103 85 203 0 99 -20 149 -81 199 -68 56
-107 64 -337 69 -200 4 -208 3 -200 -15z m370 -119 c87 -42 98 -193 18 -263
-33 -29 -39 -31 -119 -31 l-85 0 0 155 0 155 76 0 c49 0 88 -6 110 -16z"/>
<path d="M15274 3838 c3 -13 6 -222 6 -465 l0 -443 270 0 270 0 0 60 0 60
-182 2 -183 3 -3 403 -2 402 -91 0 c-90 0 -91 0 -85 -22z"/>
<path d="M16181 3838 c-5 -13 -76 -214 -159 -448 -83 -234 -154 -433 -157
-443 -7 -16 -1 -18 65 -15 l73 3 46 132 46 133 141 0 142 0 47 -135 48 -135
89 0 c71 0 89 3 86 14 -2 7 -75 216 -163 465 l-160 451 -68 0 c-61 0 -68 -2
-76 -22z m110 -361 l46 -152 -95 -3 c-52 -1 -96 -1 -99 2 -2 2 17 74 43 160
26 86 50 153 53 150 3 -3 26 -74 52 -157z"/>
<path d="M16736 3843 c5 -10 10 -219 12 -465 l3 -448 64 0 65 0 0 361 0 361
113 -173 c62 -96 169 -258 236 -361 l123 -188 69 0 69 0 0 465 0 465 -71 0
-71 0 4 -320 c2 -216 0 -316 -7 -306 -5 8 -100 153 -209 321 l-200 305 -104 0
c-96 0 -103 -1 -96 -17z"/>
<path d="M17654 3823 c3 -21 6 -230 6 -465 l0 -428 71 0 70 0 -3 360 c-2 243
0 356 7 346 6 -9 111 -171 235 -361 l225 -345 68 0 67 0 0 465 0 465 -65 0
-65 0 0 -321 0 -321 -136 208 c-76 115 -170 260 -210 322 l-74 112 -101 0
-102 0 7 -37z"/>
<path d="M18566 3838 c4 -13 10 -222 11 -465 l4 -443 279 0 280 0 0 60 0 60
-197 2 -198 3 0 145 0 145 153 3 152 3 0 59 0 59 -152 3 -153 3 0 130 0 130
198 3 197 2 0 60 0 60 -291 0 -291 0 8 -22z"/>
<path d="M19266 3843 c5 -10 10 -219 12 -465 l3 -448 84 0 85 0 0 211 0 210
37 -3 c36 -3 38 -6 166 -210 l129 -208 94 0 c92 0 94 1 84 20 -6 11 -69 110
-141 221 -72 111 -129 202 -127 203 2 2 19 9 38 16 81 33 160 141 160 221 0
70 -27 135 -74 176 -68 60 -94 66 -340 70 -210 5 -218 4 -210 -14z m371 -120
c66 -31 90 -104 58 -179 -20 -49 -78 -73 -172 -74 l-73 0 0 135 0 135 76 0
c50 0 88 -6 111 -17z"/>
<path d="M7858 2364 c-12 -12 -10 -584 2 -584 6 0 10 50 10 131 0 100 4 139
16 165 35 74 154 105 208 55 37 -35 46 -78 46 -224 0 -83 4 -126 10 -122 16
10 13 269 -4 309 -39 93 -156 111 -237 35 -17 -16 -33 -29 -35 -29 -2 0 -5 61
-6 136 -2 75 -6 132 -10 128z"/>
<path d="M11195 2359 c-10 -26 -1 -574 10 -574 14 0 19 565 5 579 -6 6 -11 4
-15 -5z"/>
<path d="M6097 2334 c-17 -17 12 -24 99 -24 l94 0 0 -265 c0 -170 4 -265 10
-265 6 0 10 95 10 265 l0 264 95 3 c55 2 95 7 95 13 0 11 -392 20 -403 9z"/>
<path d="M9607 2334 c-17 -17 12 -24 99 -24 l94 0 0 -266 c0 -174 3 -263 10
-259 6 4 10 103 10 266 l0 259 96 0 c72 0 95 3 92 13 -4 9 -54 13 -199 15
-108 1 -198 -1 -202 -4z"/>
<path d="M10738 2334 c-12 -12 -10 -554 2 -554 6 0 10 48 10 125 l0 125 100 0
c118 0 170 17 199 64 33 52 37 108 12 158 -32 67 -64 80 -200 86 -64 2 -119 1
-123 -4z m278 -58 c31 -31 34 -40 34 -91 0 -51 -3 -60 -33 -90 -38 -38 -82
-48 -192 -43 l-70 3 -3 128 -3 127 117 0 116 0 34 -34z"/>
<path d="M8294 2285 c-7 -18 3 -35 21 -35 15 0 24 19 18 38 -6 17 -32 15 -39
-3z"/>
<path d="M6605 2171 c-22 -10 -50 -29 -62 -42 -77 -85 -68 -246 18 -312 47
-36 115 -51 165 -38 45 12 117 68 108 83 -4 5 -17 -1 -33 -15 -40 -38 -65 -47
-124 -47 -39 0 -63 6 -88 23 -40 26 -79 98 -79 144 l0 33 166 0 167 0 -7 42
c-17 108 -136 174 -231 129z m142 -31 c36 -22 58 -52 68 -92 l7 -28 -155 0
-155 0 5 23 c24 96 147 148 230 97z"/>
<path d="M7055 2175 c-80 -28 -134 -127 -122 -220 24 -170 186 -238 299 -125
l38 38 0 -39 c0 -21 5 -41 10 -44 7 -4 10 62 10 189 0 124 -4 196 -10 196 -5
0 -10 -18 -10 -40 l0 -41 -37 39 c-23 24 -54 44 -78 51 -49 13 -51 13 -100 -4z
m142 -35 c101 -61 98 -263 -4 -323 -40 -23 -110 -24 -151 -3 -112 58 -117 261
-7 327 41 25 120 25 162 -1z"/>
<path d="M7556 2180 c-52 -16 -96 -54 -121 -104 -93 -185 100 -378 273 -274
17 11 32 24 32 29 0 13 -4 12 -44 -12 -43 -25 -121 -27 -170 -4 -125 60 -121
265 7 331 44 23 134 20 169 -6 33 -24 38 -25 38 -4 0 31 -127 62 -184 44z"/>
<path d="M8307 2183 c-11 -11 -8 -391 3 -398 7 -4 10 65 10 199 0 113 -1 206
-3 206 -2 0 -7 -3 -10 -7z"/>
<path d="M8606 2180 c-32 -10 -96 -51 -96 -62 0 -5 -4 -8 -10 -8 -5 0 -10 14
-10 30 0 17 -4 30 -10 30 -6 0 -10 -72 -10 -195 0 -123 4 -195 10 -195 6 0 10
54 10 141 0 113 3 146 17 169 23 40 82 70 138 70 100 0 115 -29 115 -224 0
-86 4 -147 10 -151 7 -4 10 49 10 152 0 139 -2 162 -20 190 -10 17 -27 36 -37
41 -29 16 -86 22 -117 12z"/>
<path d="M9044 2180 c-189 -45 -189 -351 0 -399 65 -16 119 0 169 50 22 21 42
39 45 39 10 0 -9 -114 -24 -146 -35 -73 -159 -104 -243 -61 -38 19 -57 13 -26
-9 24 -18 81 -34 120 -34 85 0 161 53 183 129 15 49 17 421 2 421 -5 0 -10
-19 -10 -41 l0 -42 -44 41 c-24 22 -61 45 -82 51 -43 12 -46 12 -90 1z m137
-43 c53 -35 82 -99 76 -169 -9 -108 -68 -168 -166 -168 -104 0 -165 68 -166
185 0 70 28 125 79 156 45 28 133 26 177 -4z"/>
<path d="M10125 2176 c-55 -20 -110 -85 -125 -146 -47 -196 181 -339 319 -201
75 75 81 198 15 287 -43 58 -138 85 -209 60z m156 -40 c48 -33 73 -87 73 -156
0 -108 -64 -181 -162 -182 -82 0 -154 54 -168 128 -25 134 45 234 165 234 43
0 65 -6 92 -24z"/>
<path d="M11462 2178 c-41 -14 -90 -61 -108 -105 -21 -49 -18 -146 6 -192 60
-118 192 -141 281 -49 l39 40 0 -46 c0 -29 4 -45 10 -41 6 4 10 80 10 196 0
119 -4 189 -10 189 -5 0 -10 -18 -10 -40 0 -42 -14 -54 -25 -20 -16 52 -126
90 -193 68z m154 -48 c37 -35 64 -97 64 -150 0 -53 -27 -115 -64 -150 -21 -19
-40 -25 -90 -28 -61 -4 -65 -3 -103 32 -43 38 -63 88 -63 155 0 57 20 100 65
140 36 31 41 33 101 29 50 -3 69 -9 90 -28z"/>
<path d="M11966 2176 c-21 -8 -50 -26 -65 -40 -35 -33 -41 -33 -41 4 0 17 -4
30 -10 30 -13 0 -14 -377 -1 -384 5 -4 11 55 13 138 3 128 5 148 24 173 48 63
148 86 203 45 40 -29 50 -73 50 -225 1 -89 5 -136 11 -132 6 4 10 64 10 148 0
115 -3 148 -18 176 -33 66 -104 93 -176 67z"/>
</g>
</svg>
